<svg width="1500" height="400" viewBox="0 0 1500 400" fill="none" xmlns="http://www.w3.org/2000/svg">
<rect width="1500" height="400" fill="#6FA0FE"/>
<rect x="11" y="70.5168" width="98" height="45.651" rx="22.8255" stroke="#E8E8E8" stroke-opacity="0.7" stroke-width="2"/>
<mask id="path-2-inside-1_34:2" fill="white">
<path fill-rule="evenodd" clip-rule="evenodd" d="M83.8258 117.168H36.1748V65.8255C36.1748 52.667 46.8418 42 60.0003 42C73.1588 42 83.8258 52.667 83.8258 65.8255V117.168Z"/>
</mask>
<path d="M36.1748 117.168H34.1748V119.168H36.1748V117.168ZM83.8258 117.168V119.168H85.8258V117.168H83.8258ZM36.1748 119.168H83.8258V115.168H36.1748V119.168ZM38.1748 117.168V65.8255H34.1748V117.168H38.1748ZM38.1748 65.8255C38.1748 53.7716 47.9464 44 60.0003 44V40C45.7373 40 34.1748 51.5625 34.1748 65.8255H38.1748ZM60.0003 44C72.0542 44 81.8258 53.7716 81.8258 65.8255H85.8258C85.8258 51.5625 74.2633 40 60.0003 40V44ZM81.8258 65.8255V117.168H85.8258V65.8255H81.8258Z" fill="#E8E8E8" fill-opacity="0.7" mask="url(#path-2-inside-1_34:2)"/>
<circle cx="50.2685" cy="97.7047" r="5.04027" stroke="#E8E8E8" stroke-opacity="0.7" stroke-width="2"/>
<circle cx="70.4031" cy="97.7047" r="5.04027" stroke="#E8E8E8" stroke-opacity="0.7" stroke-width="2"/>
<rect x="11" y="190.685" width="98" height="45.651" rx="22.8255" stroke="#E8E8E8" stroke-opacity="0.7" stroke-width="2"/>
<mask id="path-7-inside-2_34:2" fill="white">
<path fill-rule="evenodd" clip-rule="evenodd" d="M83.8258 237.336H36.1748V185.993C36.1748 172.835 46.8418 162.168 60.0003 162.168C73.1588 162.168 83.8258 172.835 83.8258 185.993V237.336Z"/>
</mask>
<path d="M36.1748 237.336H34.1748V239.336H36.1748V237.336ZM83.8258 237.336V239.336H85.8258V237.336H83.8258ZM36.1748 239.336H83.8258V235.336H36.1748V239.336ZM38.1748 237.336V185.993H34.1748V237.336H38.1748ZM38.1748 185.993C38.1748 173.939 47.9464 164.168 60.0003 164.168V160.168C45.7373 160.168 34.1748 171.73 34.1748 185.993H38.1748ZM60.0003 164.168C72.0542 164.168 81.8258 173.939 81.8258 185.993H85.8258C85.8258 171.73 74.2633 160.168 60.0003 160.168V164.168ZM81.8258 185.993V237.336H85.8258V185.993H81.8258Z" fill="#E8E8E8" fill-opacity="0.7" mask="url(#path-7-inside-2_34:2)"/>
<circle cx="50.2685" cy="217.873" r="5.04027" stroke="#E8E8E8" stroke-opacity="0.7" stroke-width="2"/>
<circle cx="70.4031" cy="217.873" r="5.04027" stroke="#E8E8E8" stroke-opacity="0.7" stroke-width="2"/>
<rect x="11" y="310.853" width="98" height="45.651" rx="22.8255" stroke="#E8E8E8" stroke-opacity="0.7" stroke-width="2"/>
<mask id="path-12-inside-3_34:2" fill="white">
<path fill-rule="evenodd" clip-rule="evenodd" d="M83.8258 357.503H36.1748V306.161C36.1748 293.003 46.8418 282.336 60.0003 282.336C73.1588 282.336 83.8258 293.003 83.8258 306.161V357.503Z"/>
</mask>
<path d="M36.1748 357.503H34.1748V359.503H36.1748V357.503ZM83.8258 357.503V359.503H85.8258V357.503H83.8258ZM36.1748 359.503H83.8258V355.503H36.1748V359.503ZM38.1748 357.503V306.161H34.1748V357.503H38.1748ZM38.1748 306.161C38.1748 294.107 47.9464 284.336 60.0003 284.336V280.336C45.7373 280.336 34.1748 291.898 34.1748 306.161H38.1748ZM60.0003 284.336C72.0542 284.336 81.8258 294.107 81.8258 306.161H85.8258C85.8258 291.898 74.2633 280.336 60.0003 280.336V284.336ZM81.8258 306.161V357.503H85.8258V306.161H81.8258Z" fill="#E8E8E8" fill-opacity="0.7" mask="url(#path-12-inside-3_34:2)"/>
<circle cx="50.2685" cy="338.04" r="5.04027" stroke="#E8E8E8" stroke-opacity="0.7" stroke-width="2"/>
<circle cx="70.4031" cy="338.04" r="5.04027" stroke="#E8E8E8" stroke-opacity="0.7" stroke-width="2"/>
<rect x="149" y="70.5168" width="98" height="45.651" rx="22.8255" stroke="#E8E8E8" stroke-opacity="0.7" stroke-width="2"/>
<mask id="path-17-inside-4_34:2" fill="white">
<path fill-rule="evenodd" clip-rule="evenodd" d="M221.826 117.168H174.175V65.8255C174.175 52.667 184.842 42 198 42C211.159 42 221.826 52.667 221.826 65.8255V117.168Z"/>
</mask>
<path d="M174.175 117.168H172.175V119.168H174.175V117.168ZM221.826 117.168V119.168H223.826V117.168H221.826ZM174.175 119.168H221.826V115.168H174.175V119.168ZM176.175 117.168V65.8255H172.175V117.168H176.175ZM176.175 65.8255C176.175 53.7716 185.946 44 198 44V40C183.737 40 172.175 51.5625 172.175 65.8255H176.175ZM198 44C210.054 44 219.826 53.7716 219.826 65.8255H223.826C223.826 51.5625 212.263 40 198 40V44ZM219.826 65.8255V117.168H223.826V65.8255H219.826Z" fill="#E8E8E8" fill-opacity="0.7" mask="url(#path-17-inside-4_34:2)"/>
<circle cx="188.269" cy="97.7047" r="5.04027" stroke="#E8E8E8" stroke-opacity="0.7" stroke-width="2"/>
<circle cx="208.403" cy="97.7047" r="5.04027" stroke="#E8E8E8" stroke-opacity="0.7" stroke-width="2"/>
<rect x="149" y="190.685" width="98" height="45.651" rx="22.8255" stroke="#E8E8E8" stroke-opacity="0.7" stroke-width="2"/>
<mask id="path-22-inside-5_34:2" fill="white">
<path fill-rule="evenodd" clip-rule="evenodd" d="M221.826 237.336H174.175V185.993C174.175 172.835 184.842 162.168 198 162.168C211.159 162.168 221.826 172.835 221.826 185.993V237.336Z"/>
</mask>
<path d="M174.175 237.336H172.175V239.336H174.175V237.336ZM221.826 237.336V239.336H223.826V237.336H221.826ZM174.175 239.336H221.826V235.336H174.175V239.336ZM176.175 237.336V185.993H172.175V237.336H176.175ZM176.175 185.993C176.175 173.939 185.946 164.168 198 164.168V160.168C183.737 160.168 172.175 171.73 172.175 185.993H176.175ZM198 164.168C210.054 164.168 219.826 173.939 219.826 185.993H223.826C223.826 171.73 212.263 160.168 198 160.168V164.168ZM219.826 185.993V237.336H223.826V185.993H219.826Z" fill="#E8E8E8" fill-opacity="0.7" mask="url(#path-22-inside-5_34:2)"/>
<circle cx="188.269" cy="217.873" r="5.04027" stroke="#E8E8E8" stroke-opacity="0.7" stroke-width="2"/>
<circle cx="208.403" cy="217.873" r="5.04027" stroke="#E8E8E8" stroke-opacity="0.7" stroke-width="2"/>
<rect x="149" y="310.853" width="98" height="45.651" rx="22.8255" stroke="#E8E8E8" stroke-opacity="0.7" stroke-width="2"/>
<mask id="path-27-inside-6_34:2" fill="white">
<path fill-rule="evenodd" clip-rule="evenodd" d="M221.826 357.503H174.175V306.161C174.175 293.003 184.842 282.336 198 282.336C211.159 282.336 221.826 293.003 221.826 306.161V357.503Z"/>
</mask>
<path d="M174.175 357.503H172.175V359.503H174.175V357.503ZM221.826 357.503V359.503H223.826V357.503H221.826ZM174.175 359.503H221.826V355.503H174.175V359.503ZM176.175 357.503V306.161H172.175V357.503H176.175ZM176.175 306.161C176.175 294.107 185.946 284.336 198 284.336V280.336C183.737 280.336 172.175 291.898 172.175 306.161H176.175ZM198 284.336C210.054 284.336 219.826 294.107 219.826 306.161H223.826C223.826 291.898 212.263 280.336 198 280.336V284.336ZM219.826 306.161V357.503H223.826V306.161H219.826Z" fill="#E8E8E8" fill-opacity="0.7" mask="url(#path-27-inside-6_34:2)"/>
<circle cx="188.269" cy="338.04" r="5.04027" stroke="#E8E8E8" stroke-opacity="0.7" stroke-width="2"/>
<circle cx="208.403" cy="338.04" r="5.04027" stroke="#E8E8E8" stroke-opacity="0.7" stroke-width="2"/>
<rect x="287" y="70.5168" width="98" height="45.651" rx="22.8255" stroke="#E8E8E8" stroke-opacity="0.7" stroke-width="2"/>
<mask id="path-32-inside-7_34:2" fill="white">
<path fill-rule="evenodd" clip-rule="evenodd" d="M359.826 117.168H312.175V65.8255C312.175 52.667 322.842 42 336 42C349.159 42 359.826 52.667 359.826 65.8255V117.168Z"/>
</mask>
<path d="M312.175 117.168H310.175V119.168H312.175V117.168ZM359.826 117.168V119.168H361.826V117.168H359.826ZM312.175 119.168H359.826V115.168H312.175V119.168ZM314.175 117.168V65.8255H310.175V117.168H314.175ZM314.175 65.8255C314.175 53.7716 323.946 44 336 44V40C321.737 40 310.175 51.5625 310.175 65.8255H314.175ZM336 44C348.054 44 357.826 53.7716 357.826 65.8255H361.826C361.826 51.5625 350.263 40 336 40V44ZM357.826 65.8255V117.168H361.826V65.8255H357.826Z" fill="#E8E8E8" fill-opacity="0.7" mask="url(#path-32-inside-7_34:2)"/>
<circle cx="326.269" cy="97.7047" r="5.04027" stroke="#E8E8E8" stroke-opacity="0.7" stroke-width="2"/>
<circle cx="346.403" cy="97.7047" r="5.04027" stroke="#E8E8E8" stroke-opacity="0.7" stroke-width="2"/>
<rect x="291" y="310.517" width="98" height="45.651" rx="22.8255" stroke="#E8E8E8" stroke-opacity="0.7" stroke-width="2"/>
<mask id="path-37-inside-8_34:2" fill="white">
<path fill-rule="evenodd" clip-rule="evenodd" d="M363.826 357.168H316.175V305.826C316.175 292.667 326.842 282 340 282C353.159 282 363.826 292.667 363.826 305.826V357.168Z"/>
</mask>
<path d="M316.175 357.168H314.175V359.168H316.175V357.168ZM363.826 357.168V359.168H365.826V357.168H363.826ZM316.175 359.168H363.826V355.168H316.175V359.168ZM318.175 357.168V305.826H314.175V357.168H318.175ZM318.175 305.826C318.175 293.772 327.946 284 340 284V280C325.737 280 314.175 291.562 314.175 305.826H318.175ZM340 284C352.054 284 361.826 293.772 361.826 305.826H365.826C365.826 291.562 354.263 280 340 280V284ZM361.826 305.826V357.168H365.826V305.826H361.826Z" fill="#E8E8E8" fill-opacity="0.7" mask="url(#path-37-inside-8_34:2)"/>
<circle cx="330.269" cy="337.705" r="5.04027" stroke="#E8E8E8" stroke-opacity="0.7" stroke-width="2"/>
<circle cx="350.403" cy="337.705" r="5.04027" stroke="#E8E8E8" stroke-opacity="0.7" stroke-width="2"/>
<rect x="425" y="70.5168" width="98" height="45.651" rx="22.8255" stroke="#E8E8E8" stroke-opacity="0.7" stroke-width="2"/>
<mask id="path-42-inside-9_34:2" fill="white">
<path fill-rule="evenodd" clip-rule="evenodd" d="M497.826 117.168H450.175V65.8255C450.175 52.667 460.842 42 474 42C487.159 42 497.826 52.667 497.826 65.8255V117.168Z"/>
</mask>
<path d="M450.175 117.168H448.175V119.168H450.175V117.168ZM497.826 117.168V119.168H499.826V117.168H497.826ZM450.175 119.168H497.826V115.168H450.175V119.168ZM452.175 117.168V65.8255H448.175V117.168H452.175ZM452.175 65.8255C452.175 53.7716 461.946 44 474 44V40C459.737 40 448.175 51.5625 448.175 65.8255H452.175ZM474 44C486.054 44 495.826 53.7716 495.826 65.8255H499.826C499.826 51.5625 488.263 40 474 40V44ZM495.826 65.8255V117.168H499.826V65.8255H495.826Z" fill="#E8E8E8" fill-opacity="0.7" mask="url(#path-42-inside-9_34:2)"/>
<circle cx="464.269" cy="97.7047" r="5.04027" stroke="#E8E8E8" stroke-opacity="0.7" stroke-width="2"/>
<circle cx="484.403" cy="97.7047" r="5.04027" stroke="#E8E8E8" stroke-opacity="0.7" stroke-width="2"/>
<rect x="429" y="310.517" width="98" height="45.651" rx="22.8255" stroke="#E8E8E8" stroke-opacity="0.7" stroke-width="2"/>
<mask id="path-47-inside-10_34:2" fill="white">
<path fill-rule="evenodd" clip-rule="evenodd" d="M501.826 357.168H454.175V305.826C454.175 292.667 464.842 282 478 282C491.159 282 501.826 292.667 501.826 305.826V357.168Z"/>
</mask>
<path d="M454.175 357.168H452.175V359.168H454.175V357.168ZM501.826 357.168V359.168H503.826V357.168H501.826ZM454.175 359.168H501.826V355.168H454.175V359.168ZM456.175 357.168V305.826H452.175V357.168H456.175ZM456.175 305.826C456.175 293.772 465.946 284 478 284V280C463.737 280 452.175 291.562 452.175 305.826H456.175ZM478 284C490.054 284 499.826 293.772 499.826 305.826H503.826C503.826 291.562 492.263 280 478 280V284ZM499.826 305.826V357.168H503.826V305.826H499.826Z" fill="#E8E8E8" fill-opacity="0.7" mask="url(#path-47-inside-10_34:2)"/>
<circle cx="468.269" cy="337.705" r="5.04027" stroke="#E8E8E8" stroke-opacity="0.7" stroke-width="2"/>
<circle cx="488.403" cy="337.705" r="5.04027" stroke="#E8E8E8" stroke-opacity="0.7" stroke-width="2"/>
<rect x="563" y="70.5168" width="98" height="45.651" rx="22.8255" stroke="#E8E8E8" stroke-opacity="0.7" stroke-width="2"/>
<mask id="path-52-inside-11_34:2" fill="white">
<path fill-rule="evenodd" clip-rule="evenodd" d="M635.826 117.168H588.175V65.8255C588.175 52.667 598.842 42 612 42C625.159 42 635.826 52.667 635.826 65.8255V117.168Z"/>
</mask>
<path d="M588.175 117.168H586.175V119.168H588.175V117.168ZM635.826 117.168V119.168H637.826V117.168H635.826ZM588.175 119.168H635.826V115.168H588.175V119.168ZM590.175 117.168V65.8255H586.175V117.168H590.175ZM590.175 65.8255C590.175 53.7716 599.946 44 612 44V40C597.737 40 586.175 51.5625 586.175 65.8255H590.175ZM612 44C624.054 44 633.826 53.7716 633.826 65.8255H637.826C637.826 51.5625 626.263 40 612 40V44ZM633.826 65.8255V117.168H637.826V65.8255H633.826Z" fill="#E8E8E8" fill-opacity="0.7" mask="url(#path-52-inside-11_34:2)"/>
<circle cx="602.269" cy="97.7047" r="5.04027" stroke="#E8E8E8" stroke-opacity="0.7" stroke-width="2"/>
<circle cx="622.403" cy="97.7047" r="5.04027" stroke="#E8E8E8" stroke-opacity="0.7" stroke-width="2"/>
<rect x="567" y="310.517" width="98" height="45.651" rx="22.8255" stroke="#E8E8E8" stroke-opacity="0.7" stroke-width="2"/>
<mask id="path-57-inside-12_34:2" fill="white">
<path fill-rule="evenodd" clip-rule="evenodd" d="M639.826 357.168H592.175V305.826C592.175 292.667 602.842 282 616 282C629.159 282 639.826 292.667 639.826 305.826V357.168Z"/>
</mask>
<path d="M592.175 357.168H590.175V359.168H592.175V357.168ZM639.826 357.168V359.168H641.826V357.168H639.826ZM592.175 359.168H639.826V355.168H592.175V359.168ZM594.175 357.168V305.826H590.175V357.168H594.175ZM594.175 305.826C594.175 293.772 603.946 284 616 284V280C601.737 280 590.175 291.562 590.175 305.826H594.175ZM616 284C628.054 284 637.826 293.772 637.826 305.826H641.826C641.826 291.562 630.263 280 616 280V284ZM637.826 305.826V357.168H641.826V305.826H637.826Z" fill="#E8E8E8" fill-opacity="0.7" mask="url(#path-57-inside-12_34:2)"/>
<circle cx="606.269" cy="337.705" r="5.04027" stroke="#E8E8E8" stroke-opacity="0.7" stroke-width="2"/>
<circle cx="626.403" cy="337.705" r="5.04027" stroke="#E8E8E8" stroke-opacity="0.7" stroke-width="2"/>
<rect x="701" y="70.5168" width="98" height="45.651" rx="22.8255" stroke="#E8E8E8" stroke-opacity="0.7" stroke-width="2"/>
<mask id="path-62-inside-13_34:2" fill="white">
<path fill-rule="evenodd" clip-rule="evenodd" d="M773.826 117.168H726.175V65.8255C726.175 52.667 736.842 42 750 42C763.159 42 773.826 52.667 773.826 65.8255V117.168Z"/>
</mask>
<path d="M726.175 117.168H724.175V119.168H726.175V117.168ZM773.826 117.168V119.168H775.826V117.168H773.826ZM726.175 119.168H773.826V115.168H726.175V119.168ZM728.175 117.168V65.8255H724.175V117.168H728.175ZM728.175 65.8255C728.175 53.7716 737.946 44 750 44V40C735.737 40 724.175 51.5625 724.175 65.8255H728.175ZM750 44C762.054 44 771.826 53.7716 771.826 65.8255H775.826C775.826 51.5625 764.263 40 750 40V44ZM771.826 65.8255V117.168H775.826V65.8255H771.826Z" fill="#E8E8E8" fill-opacity="0.7" mask="url(#path-62-inside-13_34:2)"/>
<circle cx="740.269" cy="97.7047" r="5.04027" stroke="#E8E8E8" stroke-opacity="0.7" stroke-width="2"/>
<circle cx="760.403" cy="97.7047" r="5.04027" stroke="#E8E8E8" stroke-opacity="0.7" stroke-width="2"/>
<rect x="705" y="310.517" width="98" height="45.651" rx="22.8255" stroke="#E8E8E8" stroke-opacity="0.7" stroke-width="2"/>
<mask id="path-67-inside-14_34:2" fill="white">
<path fill-rule="evenodd" clip-rule="evenodd" d="M777.826 357.168H730.175V305.826C730.175 292.667 740.842 282 754 282C767.159 282 777.826 292.667 777.826 305.826V357.168Z"/>
</mask>
<path d="M730.175 357.168H728.175V359.168H730.175V357.168ZM777.826 357.168V359.168H779.826V357.168H777.826ZM730.175 359.168H777.826V355.168H730.175V359.168ZM732.175 357.168V305.826H728.175V357.168H732.175ZM732.175 305.826C732.175 293.772 741.946 284 754 284V280C739.737 280 728.175 291.562 728.175 305.826H732.175ZM754 284C766.054 284 775.826 293.772 775.826 305.826H779.826C779.826 291.562 768.263 280 754 280V284ZM775.826 305.826V357.168H779.826V305.826H775.826Z" fill="#E8E8E8" fill-opacity="0.7" mask="url(#path-67-inside-14_34:2)"/>
<circle cx="744.269" cy="337.705" r="5.04027" stroke="#E8E8E8" stroke-opacity="0.7" stroke-width="2"/>
<circle cx="764.403" cy="337.705" r="5.04027" stroke="#E8E8E8" stroke-opacity="0.7" stroke-width="2"/>
<rect x="839" y="70.5168" width="98" height="45.651" rx="22.8255" stroke="#E8E8E8" stroke-opacity="0.7" stroke-width="2"/>
<mask id="path-72-inside-15_34:2" fill="white">
<path fill-rule="evenodd" clip-rule="evenodd" d="M911.826 117.168H864.175V65.8255C864.175 52.667 874.842 42 888 42C901.159 42 911.826 52.667 911.826 65.8255V117.168Z"/>
</mask>
<path d="M864.175 117.168H862.175V119.168H864.175V117.168ZM911.826 117.168V119.168H913.826V117.168H911.826ZM864.175 119.168H911.826V115.168H864.175V119.168ZM866.175 117.168V65.8255H862.175V117.168H866.175ZM866.175 65.8255C866.175 53.7716 875.946 44 888 44V40C873.737 40 862.175 51.5625 862.175 65.8255H866.175ZM888 44C900.054 44 909.826 53.7716 909.826 65.8255H913.826C913.826 51.5625 902.263 40 888 40V44ZM909.826 65.8255V117.168H913.826V65.8255H909.826Z" fill="#E8E8E8" fill-opacity="0.7" mask="url(#path-72-inside-15_34:2)"/>
<circle cx="878.269" cy="97.7047" r="5.04027" stroke="#E8E8E8" stroke-opacity="0.7" stroke-width="2"/>
<circle cx="898.403" cy="97.7047" r="5.04027" stroke="#E8E8E8" stroke-opacity="0.7" stroke-width="2"/>
<rect x="843" y="310.517" width="98" height="45.651" rx="22.8255" stroke="#E8E8E8" stroke-opacity="0.7" stroke-width="2"/>
<mask id="path-77-inside-16_34:2" fill="white">
<path fill-rule="evenodd" clip-rule="evenodd" d="M915.826 357.168H868.175V305.826C868.175 292.667 878.842 282 892 282C905.159 282 915.826 292.667 915.826 305.826V357.168Z"/>
</mask>
<path d="M868.175 357.168H866.175V359.168H868.175V357.168ZM915.826 357.168V359.168H917.826V357.168H915.826ZM868.175 359.168H915.826V355.168H868.175V359.168ZM870.175 357.168V305.826H866.175V357.168H870.175ZM870.175 305.826C870.175 293.772 879.946 284 892 284V280C877.737 280 866.175 291.562 866.175 305.826H870.175ZM892 284C904.054 284 913.826 293.772 913.826 305.826H917.826C917.826 291.562 906.263 280 892 280V284ZM913.826 305.826V357.168H917.826V305.826H913.826Z" fill="#E8E8E8" fill-opacity="0.7" mask="url(#path-77-inside-16_34:2)"/>
<circle cx="882.269" cy="337.705" r="5.04027" stroke="#E8E8E8" stroke-opacity="0.7" stroke-width="2"/>
<circle cx="902.403" cy="337.705" r="5.04027" stroke="#E8E8E8" stroke-opacity="0.7" stroke-width="2"/>
<rect x="977" y="70.5168" width="98" height="45.651" rx="22.8255" stroke="#E8E8E8" stroke-opacity="0.7" stroke-width="2"/>
<mask id="path-82-inside-17_34:2" fill="white">
<path fill-rule="evenodd" clip-rule="evenodd" d="M1049.83 117.168H1002.17V65.8255C1002.17 52.667 1012.84 42 1026 42C1039.16 42 1049.83 52.667 1049.83 65.8255V117.168Z"/>
</mask>
<path d="M1002.17 117.168H1000.17V119.168H1002.17V117.168ZM1049.83 117.168V119.168H1051.83V117.168H1049.83ZM1002.17 119.168H1049.83V115.168H1002.17V119.168ZM1004.17 117.168V65.8255H1000.17V117.168H1004.17ZM1004.17 65.8255C1004.17 53.7716 1013.95 44 1026 44V40C1011.74 40 1000.17 51.5625 1000.17 65.8255H1004.17ZM1026 44C1038.05 44 1047.83 53.7716 1047.83 65.8255H1051.83C1051.83 51.5625 1040.26 40 1026 40V44ZM1047.83 65.8255V117.168H1051.83V65.8255H1047.83Z" fill="#E8E8E8" fill-opacity="0.7" mask="url(#path-82-inside-17_34:2)"/>
<circle cx="1016.27" cy="97.7047" r="5.04027" stroke="#E8E8E8" stroke-opacity="0.7" stroke-width="2"/>
<circle cx="1036.4" cy="97.7047" r="5.04027" stroke="#E8E8E8" stroke-opacity="0.7" stroke-width="2"/>
<rect x="981" y="310.517" width="98" height="45.651" rx="22.8255" stroke="#E8E8E8" stroke-opacity="0.7" stroke-width="2"/>
<mask id="path-87-inside-18_34:2" fill="white">
<path fill-rule="evenodd" clip-rule="evenodd" d="M1053.83 357.168H1006.17V305.826C1006.17 292.667 1016.84 282 1030 282C1043.16 282 1053.83 292.667 1053.83 305.826V357.168Z"/>
</mask>
<path d="M1006.17 357.168H1004.17V359.168H1006.17V357.168ZM1053.83 357.168V359.168H1055.83V357.168H1053.83ZM1006.17 359.168H1053.83V355.168H1006.17V359.168ZM1008.17 357.168V305.826H1004.17V357.168H1008.17ZM1008.17 305.826C1008.17 293.772 1017.95 284 1030 284V280C1015.74 280 1004.17 291.562 1004.17 305.826H1008.17ZM1030 284C1042.05 284 1051.83 293.772 1051.83 305.826H1055.83C1055.83 291.562 1044.26 280 1030 280V284ZM1051.83 305.826V357.168H1055.83V305.826H1051.83Z" fill="#E8E8E8" fill-opacity="0.7" mask="url(#path-87-inside-18_34:2)"/>
<circle cx="1020.27" cy="337.705" r="5.04027" stroke="#E8E8E8" stroke-opacity="0.7" stroke-width="2"/>
<circle cx="1040.4" cy="337.705" r="5.04027" stroke="#E8E8E8" stroke-opacity="0.7" stroke-width="2"/>
<rect x="1115" y="70.5168" width="98" height="45.651" rx="22.8255" stroke="#E8E8E8" stroke-opacity="0.7" stroke-width="2"/>
<mask id="path-92-inside-19_34:2" fill="white">
<path fill-rule="evenodd" clip-rule="evenodd" d="M1187.83 117.168H1140.17V65.8255C1140.17 52.667 1150.84 42 1164 42C1177.16 42 1187.83 52.667 1187.83 65.8255V117.168Z"/>
</mask>
<path d="M1140.17 117.168H1138.17V119.168H1140.17V117.168ZM1187.83 117.168V119.168H1189.83V117.168H1187.83ZM1140.17 119.168H1187.83V115.168H1140.17V119.168ZM1142.17 117.168V65.8255H1138.17V117.168H1142.17ZM1142.17 65.8255C1142.17 53.7716 1151.95 44 1164 44V40C1149.74 40 1138.17 51.5625 1138.17 65.8255H1142.17ZM1164 44C1176.05 44 1185.83 53.7716 1185.83 65.8255H1189.83C1189.83 51.5625 1178.26 40 1164 40V44ZM1185.83 65.8255V117.168H1189.83V65.8255H1185.83Z" fill="#E8E8E8" fill-opacity="0.7" mask="url(#path-92-inside-19_34:2)"/>
<circle cx="1154.27" cy="97.7047" r="5.04027" stroke="#E8E8E8" stroke-opacity="0.7" stroke-width="2"/>
<circle cx="1174.4" cy="97.7047" r="5.04027" stroke="#E8E8E8" stroke-opacity="0.7" stroke-width="2"/>
<rect x="1119" y="310.517" width="98" height="45.651" rx="22.8255" stroke="#E8E8E8" stroke-opacity="0.7" stroke-width="2"/>
<mask id="path-97-inside-20_34:2" fill="white">
<path fill-rule="evenodd" clip-rule="evenodd" d="M1191.83 357.168H1144.17V305.826C1144.17 292.667 1154.84 282 1168 282C1181.16 282 1191.83 292.667 1191.83 305.826V357.168Z"/>
</mask>
<path d="M1144.17 357.168H1142.17V359.168H1144.17V357.168ZM1191.83 357.168V359.168H1193.83V357.168H1191.83ZM1144.17 359.168H1191.83V355.168H1144.17V359.168ZM1146.17 357.168V305.826H1142.17V357.168H1146.17ZM1146.17 305.826C1146.17 293.772 1155.95 284 1168 284V280C1153.74 280 1142.17 291.562 1142.17 305.826H1146.17ZM1168 284C1180.05 284 1189.83 293.772 1189.83 305.826H1193.83C1193.83 291.562 1182.26 280 1168 280V284ZM1189.83 305.826V357.168H1193.83V305.826H1189.83Z" fill="#E8E8E8" fill-opacity="0.7" mask="url(#path-97-inside-20_34:2)"/>
<circle cx="1158.27" cy="337.705" r="5.04027" stroke="#E8E8E8" stroke-opacity="0.7" stroke-width="2"/>
<circle cx="1178.4" cy="337.705" r="5.04027" stroke="#E8E8E8" stroke-opacity="0.7" stroke-width="2"/>
<rect x="1253" y="70.5168" width="98" height="45.651" rx="22.8255" stroke="#E8E8E8" stroke-opacity="0.7" stroke-width="2"/>
<mask id="path-102-inside-21_34:2" fill="white">
<path fill-rule="evenodd" clip-rule="evenodd" d="M1325.83 117.168H1278.17V65.8255C1278.17 52.667 1288.84 42 1302 42C1315.16 42 1325.83 52.667 1325.83 65.8255V117.168Z"/>
</mask>
<path d="M1278.17 117.168H1276.17V119.168H1278.17V117.168ZM1325.83 117.168V119.168H1327.83V117.168H1325.83ZM1278.17 119.168H1325.83V115.168H1278.17V119.168ZM1280.17 117.168V65.8255H1276.17V117.168H1280.17ZM1280.17 65.8255C1280.17 53.7716 1289.95 44 1302 44V40C1287.74 40 1276.17 51.5625 1276.17 65.8255H1280.17ZM1302 44C1314.05 44 1323.83 53.7716 1323.83 65.8255H1327.83C1327.83 51.5625 1316.26 40 1302 40V44ZM1323.83 65.8255V117.168H1327.83V65.8255H1323.83Z" fill="#E8E8E8" fill-opacity="0.7" mask="url(#path-102-inside-21_34:2)"/>
<circle cx="1292.27" cy="97.7047" r="5.04027" stroke="#E8E8E8" stroke-opacity="0.7" stroke-width="2"/>
<circle cx="1312.4" cy="97.7047" r="5.04027" stroke="#E8E8E8" stroke-opacity="0.7" stroke-width="2"/>
<rect x="1253" y="190.685" width="98" height="45.651" rx="22.8255" stroke="#E8E8E8" stroke-opacity="0.7" stroke-width="2"/>
<mask id="path-107-inside-22_34:2" fill="white">
<path fill-rule="evenodd" clip-rule="evenodd" d="M1325.83 237.336H1278.17V185.993C1278.17 172.835 1288.84 162.168 1302 162.168C1315.16 162.168 1325.83 172.835 1325.83 185.993V237.336Z"/>
</mask>
<path d="M1278.17 237.336H1276.17V239.336H1278.17V237.336ZM1325.83 237.336V239.336H1327.83V237.336H1325.83ZM1278.17 239.336H1325.83V235.336H1278.17V239.336ZM1280.17 237.336V185.993H1276.17V237.336H1280.17ZM1280.17 185.993C1280.17 173.939 1289.95 164.168 1302 164.168V160.168C1287.74 160.168 1276.17 171.73 1276.17 185.993H1280.17ZM1302 164.168C1314.05 164.168 1323.83 173.939 1323.83 185.993H1327.83C1327.83 171.73 1316.26 160.168 1302 160.168V164.168ZM1323.83 185.993V237.336H1327.83V185.993H1323.83Z" fill="#E8E8E8" fill-opacity="0.7" mask="url(#path-107-inside-22_34:2)"/>
<circle cx="1292.27" cy="217.873" r="5.04027" stroke="#E8E8E8" stroke-opacity="0.7" stroke-width="2"/>
<circle cx="1312.4" cy="217.873" r="5.04027" stroke="#E8E8E8" stroke-opacity="0.7" stroke-width="2"/>
<rect x="1253" y="310.853" width="98" height="45.651" rx="22.8255" stroke="#E8E8E8" stroke-opacity="0.7" stroke-width="2"/>
<mask id="path-112-inside-23_34:2" fill="white">
<path fill-rule="evenodd" clip-rule="evenodd" d="M1325.83 357.503H1278.17V306.161C1278.17 293.003 1288.84 282.336 1302 282.336C1315.16 282.336 1325.83 293.003 1325.83 306.161V357.503Z"/>
</mask>
<path d="M1278.17 357.503H1276.17V359.503H1278.17V357.503ZM1325.83 357.503V359.503H1327.83V357.503H1325.83ZM1278.17 359.503H1325.83V355.503H1278.17V359.503ZM1280.17 357.503V306.161H1276.17V357.503H1280.17ZM1280.17 306.161C1280.17 294.107 1289.95 284.336 1302 284.336V280.336C1287.74 280.336 1276.17 291.898 1276.17 306.161H1280.17ZM1302 284.336C1314.05 284.336 1323.83 294.107 1323.83 306.161H1327.83C1327.83 291.898 1316.26 280.336 1302 280.336V284.336ZM1323.83 306.161V357.503H1327.83V306.161H1323.83Z" fill="#E8E8E8" fill-opacity="0.7" mask="url(#path-112-inside-23_34:2)"/>
<circle cx="1292.27" cy="338.04" r="5.04027" stroke="#E8E8E8" stroke-opacity="0.7" stroke-width="2"/>
<circle cx="1312.4" cy="338.04" r="5.04027" stroke="#E8E8E8" stroke-opacity="0.7" stroke-width="2"/>
<rect x="1391" y="70.5168" width="98" height="45.651" rx="22.8255" stroke="#E8E8E8" stroke-opacity="0.7" stroke-width="2"/>
<mask id="path-117-inside-24_34:2" fill="white">
<path fill-rule="evenodd" clip-rule="evenodd" d="M1463.83 117.168H1416.17V65.8255C1416.17 52.667 1426.84 42 1440 42C1453.16 42 1463.83 52.667 1463.83 65.8255V117.168Z"/>
</mask>
<path d="M1416.17 117.168H1414.17V119.168H1416.17V117.168ZM1463.83 117.168V119.168H1465.83V117.168H1463.83ZM1416.17 119.168H1463.83V115.168H1416.17V119.168ZM1418.17 117.168V65.8255H1414.17V117.168H1418.17ZM1418.17 65.8255C1418.17 53.7716 1427.95 44 1440 44V40C1425.74 40 1414.17 51.5625 1414.17 65.8255H1418.17ZM1440 44C1452.05 44 1461.83 53.7716 1461.83 65.8255H1465.83C1465.83 51.5625 1454.26 40 1440 40V44ZM1461.83 65.8255V117.168H1465.83V65.8255H1461.83Z" fill="#E8E8E8" fill-opacity="0.7" mask="url(#path-117-inside-24_34:2)"/>
<circle cx="1430.27" cy="97.7047" r="5.04027" stroke="#E8E8E8" stroke-opacity="0.7" stroke-width="2"/>
<circle cx="1450.4" cy="97.7047" r="5.04027" stroke="#E8E8E8" stroke-opacity="0.7" stroke-width="2"/>
<rect x="1391" y="190.685" width="98" height="45.651" rx="22.8255" stroke="#E8E8E8" stroke-opacity="0.7" stroke-width="2"/>
<mask id="path-122-inside-25_34:2" fill="white">
<path fill-rule="evenodd" clip-rule="evenodd" d="M1463.83 237.336H1416.17V185.993C1416.17 172.835 1426.84 162.168 1440 162.168C1453.16 162.168 1463.83 172.835 1463.83 185.993V237.336Z"/>
</mask>
<path d="M1416.17 237.336H1414.17V239.336H1416.17V237.336ZM1463.83 237.336V239.336H1465.83V237.336H1463.83ZM1416.17 239.336H1463.83V235.336H1416.17V239.336ZM1418.17 237.336V185.993H1414.17V237.336H1418.17ZM1418.17 185.993C1418.17 173.939 1427.95 164.168 1440 164.168V160.168C1425.74 160.168 1414.17 171.73 1414.17 185.993H1418.17ZM1440 164.168C1452.05 164.168 1461.83 173.939 1461.83 185.993H1465.83C1465.83 171.73 1454.26 160.168 1440 160.168V164.168ZM1461.83 185.993V237.336H1465.83V185.993H1461.83Z" fill="#E8E8E8" fill-opacity="0.7" mask="url(#path-122-inside-25_34:2)"/>
<circle cx="1430.27" cy="217.873" r="5.04027" stroke="#E8E8E8" stroke-opacity="0.7" stroke-width="2"/>
<circle cx="1450.4" cy="217.873" r="5.04027" stroke="#E8E8E8" stroke-opacity="0.7" stroke-width="2"/>
<rect x="1391" y="310.853" width="98" height="45.651" rx="22.8255" stroke="#E8E8E8" stroke-opacity="0.7" stroke-width="2"/>
<mask id="path-127-inside-26_34:2" fill="white">
<path fill-rule="evenodd" clip-rule="evenodd" d="M1463.83 357.503H1416.17V306.161C1416.17 293.003 1426.84 282.336 1440 282.336C1453.16 282.336 1463.83 293.003 1463.83 306.161V357.503Z"/>
</mask>
<path d="M1416.17 357.503H1414.17V359.503H1416.17V357.503ZM1463.83 357.503V359.503H1465.83V357.503H1463.83ZM1416.17 359.503H1463.83V355.503H1416.17V359.503ZM1418.17 357.503V306.161H1414.17V357.503H1418.17ZM1418.17 306.161C1418.17 294.107 1427.95 284.336 1440 284.336V280.336C1425.74 280.336 1414.17 291.898 1414.17 306.161H1418.17ZM1440 284.336C1452.05 284.336 1461.83 294.107 1461.83 306.161H1465.83C1465.83 291.898 1454.26 280.336 1440 280.336V284.336ZM1461.83 306.161V357.503H1465.83V306.161H1461.83Z" fill="#E8E8E8" fill-opacity="0.7" mask="url(#path-127-inside-26_34:2)"/>
<circle cx="1430.27" cy="338.04" r="5.04027" stroke="#E8E8E8" stroke-opacity="0.7" stroke-width="2"/>
<circle cx="1450.4" cy="338.04" r="5.04027" stroke="#E8E8E8" stroke-opacity="0.7" stroke-width="2"/>
<path d="M329.16 239L311.4 171.8H324.552L336.648 225.272L350.856 171.8H364.392L378.216 225.272L390.312 171.8H403.56L385.32 239H370.728L357.384 189.176L343.656 239H329.16ZM430.251 240.152C425.451 240.152 421.195 239.128 417.483 237.08C413.771 235.032 410.859 232.152 408.747 228.44C406.635 224.728 405.579 220.44 405.579 215.576C405.579 210.648 406.603 206.264 408.651 202.424C410.763 198.584 413.643 195.608 417.291 193.496C421.003 191.32 425.355 190.232 430.347 190.232C435.019 190.232 439.147 191.256 442.731 193.304C446.315 195.352 449.099 198.168 451.083 201.752C453.131 205.272 454.155 209.208 454.155 213.56C454.155 214.264 454.123 215 454.059 215.768C454.059 216.536 454.027 217.336 453.963 218.168H417.771C418.027 221.88 419.307 224.792 421.611 226.904C423.979 229.016 426.827 230.072 430.155 230.072C432.651 230.072 434.731 229.528 436.395 228.44C438.123 227.288 439.403 225.816 440.235 224.024H452.715C451.819 227.032 450.315 229.784 448.203 232.28C446.155 234.712 443.595 236.632 440.523 238.04C437.515 239.448 434.091 240.152 430.251 240.152ZM430.347 200.216C427.339 200.216 424.683 201.08 422.379 202.808C420.075 204.472 418.603 207.032 417.963 210.488H441.675C441.483 207.352 440.331 204.856 438.219 203C436.107 201.144 433.483 200.216 430.347 200.216ZM464.49 239V169.88H476.778V239H464.49ZM512.662 240.152C507.798 240.152 503.51 239.096 499.798 236.984C496.086 234.872 493.142 231.928 490.966 228.152C488.854 224.376 487.798 220.056 487.798 215.192C487.798 210.328 488.854 206.008 490.966 202.232C493.142 198.456 496.086 195.512 499.798 193.4C503.51 191.288 507.798 190.232 512.662 190.232C518.742 190.232 523.862 191.832 528.022 195.032C532.182 198.168 534.838 202.52 535.99 208.088H523.03C522.39 205.784 521.11 203.992 519.19 202.712C517.334 201.368 515.126 200.696 512.566 200.696C509.174 200.696 506.294 201.976 503.926 204.536C501.558 207.096 500.374 210.648 500.374 215.192C500.374 219.736 501.558 223.288 503.926 225.848C506.294 228.408 509.174 229.688 512.566 229.688C515.126 229.688 517.334 229.048 519.19 227.768C521.11 226.488 522.39 224.664 523.03 222.296H535.99C534.838 227.672 532.182 231.992 528.022 235.256C523.862 238.52 518.742 240.152 512.662 240.152ZM569.744 240.152C565.136 240.152 560.976 239.096 557.264 236.984C553.616 234.872 550.704 231.96 548.528 228.248C546.416 224.472 545.36 220.12 545.36 215.192C545.36 210.264 546.448 205.944 548.624 202.232C550.8 198.456 553.712 195.512 557.36 193.4C561.072 191.288 565.232 190.232 569.84 190.232C574.384 190.232 578.48 191.288 582.128 193.4C585.84 195.512 588.752 198.456 590.864 202.232C593.04 205.944 594.128 210.264 594.128 215.192C594.128 220.12 593.04 224.472 590.864 228.248C588.752 231.96 585.84 234.872 582.128 236.984C578.416 239.096 574.288 240.152 569.744 240.152ZM569.744 229.496C572.944 229.496 575.728 228.312 578.096 225.944C580.464 223.512 581.648 219.928 581.648 215.192C581.648 210.456 580.464 206.904 578.096 204.536C575.728 202.104 572.976 200.888 569.84 200.888C566.576 200.888 563.76 202.104 561.392 204.536C559.088 206.904 557.936 210.456 557.936 215.192C557.936 219.928 559.088 223.512 561.392 225.944C563.76 228.312 566.544 229.496 569.744 229.496ZM605.115 239V191.384H615.963L617.019 197.816C618.555 195.512 620.571 193.688 623.067 192.344C625.627 190.936 628.571 190.232 631.899 190.232C639.259 190.232 644.475 193.08 647.547 198.776C649.275 196.152 651.579 194.072 654.459 192.536C657.403 191 660.603 190.232 664.059 190.232C670.267 190.232 675.035 192.088 678.363 195.8C681.691 199.512 683.355 204.952 683.355 212.12V239H671.067V213.272C671.067 209.176 670.267 206.04 668.667 203.864C667.131 201.688 664.731 200.6 661.467 200.6C658.139 200.6 655.451 201.816 653.403 204.248C651.419 206.68 650.427 210.072 650.427 214.424V239H638.139V213.272C638.139 209.176 637.339 206.04 635.739 203.864C634.139 201.688 631.675 200.6 628.347 200.6C625.083 200.6 622.427 201.816 620.379 204.248C618.395 206.68 617.403 210.072 617.403 214.424V239H605.115ZM718.157 240.152C713.357 240.152 709.101 239.128 705.389 237.08C701.677 235.032 698.765 232.152 696.653 228.44C694.541 224.728 693.485 220.44 693.485 215.576C693.485 210.648 694.509 206.264 696.557 202.424C698.669 198.584 701.549 195.608 705.197 193.496C708.909 191.32 713.261 190.232 718.253 190.232C722.925 190.232 727.053 191.256 730.637 193.304C734.221 195.352 737.005 198.168 738.989 201.752C741.037 205.272 742.061 209.208 742.061 213.56C742.061 214.264 742.029 215 741.965 215.768C741.965 216.536 741.933 217.336 741.869 218.168H705.677C705.933 221.88 707.213 224.792 709.517 226.904C711.885 229.016 714.733 230.072 718.061 230.072C720.557 230.072 722.637 229.528 724.301 228.44C726.029 227.288 727.309 225.816 728.141 224.024H740.621C739.725 227.032 738.221 229.784 736.109 232.28C734.061 234.712 731.501 236.632 728.429 238.04C725.421 239.448 721.997 240.152 718.157 240.152ZM718.253 200.216C715.245 200.216 712.589 201.08 710.285 202.808C707.981 204.472 706.509 207.032 705.869 210.488H729.581C729.389 207.352 728.237 204.856 726.125 203C724.013 201.144 721.389 200.216 718.253 200.216ZM796.487 239C791.495 239 787.495 237.784 784.487 235.352C781.479 232.92 779.975 228.6 779.975 222.392V201.656H771.815V191.384H779.975L781.415 178.616H792.263V191.384H805.127V201.656H792.263V222.488C792.263 224.792 792.743 226.392 793.703 227.288C794.727 228.12 796.455 228.536 798.887 228.536H804.839V239H796.487ZM837.307 240.152C832.699 240.152 828.539 239.096 824.827 236.984C821.179 234.872 818.267 231.96 816.091 228.248C813.979 224.472 812.923 220.12 812.923 215.192C812.923 210.264 814.011 205.944 816.187 202.232C818.363 198.456 821.275 195.512 824.923 193.4C828.635 191.288 832.795 190.232 837.403 190.232C841.947 190.232 846.043 191.288 849.691 193.4C853.403 195.512 856.315 198.456 858.427 202.232C860.603 205.944 861.691 210.264 861.691 215.192C861.691 220.12 860.603 224.472 858.427 228.248C856.315 231.96 853.403 234.872 849.691 236.984C845.979 239.096 841.851 240.152 837.307 240.152ZM837.307 229.496C840.507 229.496 843.291 228.312 845.659 225.944C848.027 223.512 849.211 219.928 849.211 215.192C849.211 210.456 848.027 206.904 845.659 204.536C843.291 202.104 840.539 200.888 837.403 200.888C834.139 200.888 831.323 202.104 828.955 204.536C826.651 206.904 825.499 210.456 825.499 215.192C825.499 219.928 826.651 223.512 828.955 225.944C831.323 228.312 834.107 229.496 837.307 229.496ZM895.841 239V171.8H920.705C926.081 171.8 930.529 172.696 934.049 174.488C937.569 176.28 940.193 178.744 941.921 181.88C943.649 185.016 944.513 188.536 944.513 192.44C944.513 196.152 943.681 199.576 942.017 202.712C940.353 205.784 937.761 208.28 934.241 210.2C930.721 212.056 926.209 212.984 920.705 212.984H908.129V239H895.841ZM908.129 203H919.937C924.225 203 927.297 202.072 929.153 200.216C931.073 198.296 932.033 195.704 932.033 192.44C932.033 189.112 931.073 186.52 929.153 184.664C927.297 182.744 924.225 181.784 919.937 181.784H908.129V203ZM953.865 239V191.384H964.809L965.961 200.312C967.689 197.24 970.025 194.808 972.969 193.016C975.977 191.16 979.497 190.232 983.529 190.232V203.192H980.073C977.385 203.192 974.985 203.608 972.873 204.44C970.761 205.272 969.097 206.712 967.881 208.76C966.729 210.808 966.153 213.656 966.153 217.304V239H953.865ZM1013.93 240.152C1009.32 240.152 1005.16 239.096 1001.45 236.984C997.804 234.872 994.892 231.96 992.716 228.248C990.604 224.472 989.548 220.12 989.548 215.192C989.548 210.264 990.636 205.944 992.812 202.232C994.988 198.456 997.9 195.512 1001.55 193.4C1005.26 191.288 1009.42 190.232 1014.03 190.232C1018.57 190.232 1022.67 191.288 1026.32 193.4C1030.03 195.512 1032.94 198.456 1035.05 202.232C1037.23 205.944 1038.32 210.264 1038.32 215.192C1038.32 220.12 1037.23 224.472 1035.05 228.248C1032.94 231.96 1030.03 234.872 1026.32 236.984C1022.6 239.096 1018.48 240.152 1013.93 240.152ZM1013.93 229.496C1017.13 229.496 1019.92 228.312 1022.28 225.944C1024.65 223.512 1025.84 219.928 1025.84 215.192C1025.84 210.456 1024.65 206.904 1022.28 204.536C1019.92 202.104 1017.16 200.888 1014.03 200.888C1010.76 200.888 1007.95 202.104 1005.58 204.536C1003.28 206.904 1002.12 210.456 1002.12 215.192C1002.12 219.928 1003.28 223.512 1005.58 225.944C1007.95 228.312 1010.73 229.496 1013.93 229.496ZM1049.3 239V169.88H1061.59V239H1049.3ZM1080.77 183.992C1078.53 183.992 1076.67 183.32 1075.2 181.976C1073.79 180.632 1073.09 178.936 1073.09 176.888C1073.09 174.84 1073.79 173.176 1075.2 171.896C1076.67 170.552 1078.53 169.88 1080.77 169.88C1083.01 169.88 1084.83 170.552 1086.24 171.896C1087.71 173.176 1088.45 174.84 1088.45 176.888C1088.45 178.936 1087.71 180.632 1086.24 181.976C1084.83 183.32 1083.01 183.992 1080.77 183.992ZM1074.63 239V191.384H1086.91V239H1074.63ZM1123.07 240.152C1118.2 240.152 1113.92 239.096 1110.2 236.984C1106.49 234.872 1103.55 231.928 1101.37 228.152C1099.26 224.376 1098.2 220.056 1098.2 215.192C1098.2 210.328 1099.26 206.008 1101.37 202.232C1103.55 198.456 1106.49 195.512 1110.2 193.4C1113.92 191.288 1118.2 190.232 1123.07 190.232C1129.15 190.232 1134.27 191.832 1138.43 195.032C1142.59 198.168 1145.24 202.52 1146.4 208.088H1133.44C1132.8 205.784 1131.52 203.992 1129.6 202.712C1127.74 201.368 1125.53 200.696 1122.97 200.696C1119.58 200.696 1116.7 201.976 1114.33 204.536C1111.96 207.096 1110.78 210.648 1110.78 215.192C1110.78 219.736 1111.96 223.288 1114.33 225.848C1116.7 228.408 1119.58 229.688 1122.97 229.688C1125.53 229.688 1127.74 229.048 1129.6 227.768C1131.52 226.488 1132.8 224.664 1133.44 222.296H1146.4C1145.24 227.672 1142.59 231.992 1138.43 235.256C1134.27 238.52 1129.15 240.152 1123.07 240.152ZM1159.89 217.784L1158.55 171.8H1171.7L1170.26 217.784H1159.89ZM1165.37 239.672C1163.06 239.672 1161.17 238.968 1159.7 237.56C1158.29 236.152 1157.59 234.456 1157.59 232.472C1157.59 230.424 1158.29 228.696 1159.7 227.288C1161.17 225.88 1163.06 225.176 1165.37 225.176C1167.54 225.176 1169.33 225.88 1170.74 227.288C1172.21 228.696 1172.95 230.424 1172.95 232.472C1172.95 234.456 1172.21 236.152 1170.74 237.56C1169.33 238.968 1167.54 239.672 1165.37 239.672Z" fill="white"/>
</svg>
