<svg width="530" height="530" viewBox="0 0 530 530" fill="none" xmlns="http://www.w3.org/2000/svg">
<circle cx="265" cy="265" r="265" fill="#EDF0F1"/>
<mask id="mask0_133:185" style="mask-type:alpha" maskUnits="userSpaceOnUse" x="0" y="0" width="530" height="530">
<circle cx="265" cy="265" r="265" fill="white"/>
</mask>
<g mask="url(#mask0_133:185)">
<path fill-rule="evenodd" clip-rule="evenodd" d="M112.615 516.881C112.615 479.086 140.113 446.91 177.446 441.019L265.394 427.144L353.341 441.019C390.674 446.91 418.172 479.086 418.172 516.881V707.979H112.615V516.881Z" fill="#EF821B"/>
<path d="M233.893 388.247H289.807V441.404C289.807 456.844 277.29 469.361 261.85 469.361V469.361C246.41 469.361 233.893 456.844 233.893 441.404V388.247Z" fill="#A13729"/>
<mask id="mask1_133:185" style="mask-type:alpha" maskUnits="userSpaceOnUse" x="233" y="388" width="57" height="82">
<path d="M233.893 388.247H289.807V441.404C289.807 456.844 277.29 469.361 261.85 469.361V469.361C246.41 469.361 233.893 456.844 233.893 441.404V388.247Z" fill="white"/>
</mask>
<g mask="url(#mask1_133:185)">
<circle opacity="0.644984" cx="259.881" cy="388.246" r="49.6137" fill="#F3A2A2"/>
</g>
<path fill-rule="evenodd" clip-rule="evenodd" d="M335.483 291.382H339.523C343.993 291.382 347.382 295.412 346.616 299.815L342.821 321.641C342.221 325.09 339.228 327.608 335.727 327.608H335.483V291.382Z" fill="#F47D6D" stroke="#CE5E4F" stroke-width="4"/>
<path fill-rule="evenodd" clip-rule="evenodd" d="M191.367 291.382H187.327C182.857 291.382 179.468 295.412 180.234 299.815L184.029 321.641C184.629 325.09 187.622 327.608 191.123 327.608H191.367V291.382Z" fill="#F47D6D" stroke="#CE5E4F" stroke-width="4"/>
<path fill-rule="evenodd" clip-rule="evenodd" d="M189.792 176.404H336.27V345.187C336.27 354.42 334.752 363.614 331.023 372.06C327.058 381.043 321.252 392.643 315.049 399.786C307.954 407.956 295.168 416.251 286.673 421.274C281.153 424.537 274.821 426.048 268.41 426.048H253.119C244.983 426.048 237.011 423.611 230.568 418.642C223.582 413.254 214.758 405.909 210.313 400.06C205.999 394.382 200.39 382.983 196.127 373.658C191.782 364.152 189.792 353.779 189.792 343.327V176.404Z" fill="#CD5E4F"/>
<path opacity="0.8" d="M309.171 279.553C305.472 276.606 300.785 274.844 295.687 274.844C289.698 274.844 284.277 277.275 280.357 281.204" stroke="black" stroke-width="4.4" stroke-linejoin="round"/>
<path d="M217.355 279.553C221.055 276.606 225.741 274.844 230.839 274.844C236.828 274.844 242.249 277.275 246.17 281.204" stroke="black" stroke-width="4.4" stroke-linejoin="round"/>
<path fill-rule="evenodd" clip-rule="evenodd" d="M189.792 329.368L190.639 331.271C199.619 351.437 224.618 358.623 242.935 346.304V346.304C255.027 338.171 270.859 338.246 282.875 346.491L283.489 346.913C301.679 359.396 326.717 352.716 336.27 332.831V332.831V388.911C336.27 421.164 310.124 447.311 277.87 447.311H248.192C215.939 447.311 189.792 421.164 189.792 388.911V329.368Z" fill="black"/>
<ellipse cx="263.274" cy="367.49" rx="19.688" ry="6.01871" fill="white"/>
<circle cx="232.712" cy="292.563" r="5.90639" fill="#130603"/>
<circle cx="295.713" cy="292.563" r="5.90639" fill="#130603"/>
<path fill-rule="evenodd" clip-rule="evenodd" d="M262.607 295.345L272.905 337.639H253.197L262.607 295.345Z" fill="#A54032"/>
<path fill-rule="evenodd" clip-rule="evenodd" d="M196.092 251.593L190.034 290.587V249.992L196.092 251.593Z" fill="#B94434"/>
<circle opacity="0.5" r="0.787519" transform="matrix(-1 0 0 1 193.73 255.944)" fill="#CD5E4F"/>
<circle r="0.787519" transform="matrix(-1 0 0 1 192.942 265.394)" fill="#CD5E4F"/>
<circle opacity="0.5" r="0.787519" transform="matrix(-1 0 0 1 191.367 269.331)" fill="#CD5E4F"/>
<circle r="0.787519" transform="matrix(-1 0 0 1 191.367 274.844)" fill="#CD5E4F"/>
<circle opacity="0.5" r="0.787519" transform="matrix(-1 0 0 1 191.367 260.669)" fill="#CD5E4F"/>
<path fill-rule="evenodd" clip-rule="evenodd" d="M330.758 251.258L336.27 290.595V249.644L330.758 251.258Z" fill="#B94434"/>
<circle opacity="0.5" cx="333.121" cy="255.944" r="0.787519" fill="#CD5E4F"/>
<circle cx="333.908" cy="265.394" r="0.787519" fill="#CD5E4F"/>
<circle opacity="0.5" cx="335.483" cy="269.331" r="0.787519" fill="#CD5E4F"/>
<circle cx="335.483" cy="274.844" r="0.787519" fill="#CD5E4F"/>
<circle opacity="0.5" cx="335.483" cy="260.669" r="0.787519" fill="#CD5E4F"/>
<path fill-rule="evenodd" clip-rule="evenodd" d="M248.856 49.6138C263.149 49.6138 275.731 56.936 283.057 68.034C290.956 64.3014 299.785 62.2141 309.101 62.2141C342.809 62.2141 370.134 89.5393 370.134 123.247C370.134 127.892 369.615 132.416 368.632 136.763C377.33 145.207 382.734 157.024 382.734 170.104C382.734 190.963 368.99 208.611 350.063 214.486C350.97 217.688 351.6 221.261 351.865 225.049C352.873 239.464 348.217 251.533 341.467 252.005C334.716 252.477 328.426 241.174 327.418 226.758C327.147 222.872 327.286 219.156 327.768 215.792C319.546 214.271 312.083 210.586 305.993 205.349C296.88 212.851 285.207 217.355 272.482 217.355C266.383 217.355 260.527 216.321 255.078 214.418C247.669 239.779 224.241 258.306 196.486 258.306C162.779 258.306 135.453 230.981 135.453 197.273C135.453 177.813 144.561 160.48 158.747 149.304C153.978 142.049 151.204 133.366 151.204 124.034C151.204 98.5906 171.83 77.9644 197.274 77.9644C201.469 77.9644 205.534 78.5253 209.396 79.576C214.198 62.2959 230.046 49.6138 248.856 49.6138Z" fill="black"/>
</g>
</svg>
