<svg width="50" height="50" viewBox="0 0 50 50" fill="none" xmlns="http://www.w3.org/2000/svg">
<rect width="50" height="50" fill="#FDFDFD"/>
<path d="M1 15C1 7.26801 7.26801 1 15 1H35C42.732 1 49 7.26801 49 15V35C49 42.732 42.732 49 35 49H15C7.26801 49 1 42.732 1 35V15Z" fill="#2B2F33" stroke="#212327" stroke-width="2"/>
<path d="M9 29.4294C9 25.2187 12.4135 21.8052 16.6242 21.8052H33.3758C37.5865 21.8052 41 25.2187 41 29.4294C41 33.6401 37.5865 37.0536 33.3758 37.0536H16.6242C12.4135 37.0536 9 33.6401 9 29.4294Z" fill="#FDFDFD"/>
<path d="M17.3753 37.0536H32.6236V20.6242C32.6236 16.4135 29.2101 13 24.9994 13C20.7887 13 17.3753 16.4135 17.3753 20.6242V37.0536Z" fill="#FDFDFD"/>
<ellipse cx="19.8999" cy="30.1429" rx="2.67143" ry="2.51429" fill="#212327"/>
<ellipse cx="30.1001" cy="30.1429" rx="2.67143" ry="2.51429" fill="#212327"/>
</svg>
