<svg width="35" height="35" viewBox="0 0 35 35" fill="none" xmlns="http://www.w3.org/2000/svg">
<rect width="35" height="35" rx="5" fill="#FF4642" fill-opacity="0.15"/>
<path d="M7.34 22H8.786V18.982H10.91C10.99 18.982 11.096 18.978 11.228 18.97C11.364 18.962 11.488 18.95 11.6 18.934C12.344 18.818 12.896 18.508 13.256 18.004C13.62 17.496 13.802 16.886 13.802 16.174C13.802 15.458 13.622 14.848 13.262 14.344C12.906 13.836 12.352 13.524 11.6 13.408C11.488 13.388 11.366 13.376 11.234 13.372C11.102 13.364 10.994 13.36 10.91 13.36H7.34V22ZM8.786 17.632V14.716H10.85C10.93 14.716 11.02 14.72 11.12 14.728C11.22 14.736 11.312 14.75 11.396 14.77C11.636 14.83 11.824 14.938 11.96 15.094C12.1 15.246 12.198 15.418 12.254 15.61C12.314 15.802 12.344 15.99 12.344 16.174C12.344 16.358 12.314 16.546 12.254 16.738C12.198 16.93 12.1 17.102 11.96 17.254C11.824 17.406 11.636 17.512 11.396 17.572C11.312 17.596 11.22 17.612 11.12 17.62C11.02 17.628 10.93 17.632 10.85 17.632H8.786ZM15.6041 22H18.3581C18.4261 22 18.5681 21.998 18.7841 21.994C19.0041 21.99 19.2121 21.976 19.4081 21.952C20.0961 21.864 20.6761 21.622 21.1481 21.226C21.6201 20.826 21.9781 20.318 22.2221 19.702C22.4661 19.086 22.5881 18.412 22.5881 17.68C22.5881 16.948 22.4661 16.274 22.2221 15.658C21.9781 15.042 21.6201 14.534 21.1481 14.134C20.6761 13.734 20.0961 13.492 19.4081 13.408C19.2081 13.384 19.0001 13.37 18.7841 13.366C18.5721 13.362 18.4301 13.36 18.3581 13.36H15.6041V22ZM17.0741 20.638V14.722H18.3581C18.4781 14.722 18.6301 14.726 18.8141 14.734C18.9981 14.738 19.1641 14.756 19.3121 14.788C19.7121 14.864 20.0401 15.042 20.2961 15.322C20.5521 15.602 20.7421 15.948 20.8661 16.36C20.9941 16.768 21.0581 17.208 21.0581 17.68C21.0581 18.132 20.9981 18.564 20.8781 18.976C20.7581 19.388 20.5681 19.738 20.3081 20.026C20.0521 20.31 19.7201 20.492 19.3121 20.572C19.1641 20.6 18.9981 20.618 18.8141 20.626C18.6301 20.634 18.4781 20.638 18.3581 20.638H17.0741ZM24.6064 22H26.0524V18.4H29.0884V16.96H26.0524V14.806H29.8084V13.36H24.6064V22Z" fill="#FF4642"/>
</svg>
